<svg version="1.2" xmlns="http://www.w3.org/2000/svg" viewBox="0 0 377 377" width="100" height="100"><style>.a{fill:#fffce1}.b{fill:#373737}</style><path fill-rule="evenodd" class="a" d="m188.5 377c-104.2 0-188.5-84.3-188.5-188.5 0-104.2 84.3-188.5 188.5-188.5 104.2 0 188.5 84.3 188.5 188.5 0 104.2-84.3 188.5-188.5 188.5z"/><path class="b" d="m102.2 168.1v12.6q-5.7-3.1-11.5-4.7-5.7-1.6-11.6-1.6-13.1 0-20.4 8.4-7.2 8.2-7.2 23.3 0 15 7.2 23.3 7.3 8.3 20.4 8.3 5.9 0 11.6-1.5 5.8-1.7 11.5-4.8v12.5q-5.7 2.6-11.7 3.9-6.1 1.3-12.9 1.3-18.5 0-29.4-11.6-10.9-11.7-10.9-31.4 0-20.1 11-31.6 11-11.5 30.2-11.5 6.2 0 12.2 1.3 5.9 1.3 11.5 3.8zm74.1 37.7h-13.4q-16.3 0-22.6 3.7-6.3 3.7-6.3 12.7 0 7.2 4.6 11.5 4.8 4.1 12.9 4.1 11.2 0 18-7.9 6.8-7.9 6.8-21.1zm13.5-5.6v46.8h-13.5v-12.4q-4.6 7.4-11.5 11-6.9 3.5-16.9 3.5-12.6 0-20-7-7.4-7.1-7.4-19 0-13.8 9.2-20.8 9.3-7.1 27.7-7.1h18.9v-1.3q0-9.3-6.2-14.4-6-5.1-17.1-5.1-7 0-13.7 1.7-6.7 1.7-12.8 5.1v-12.5q7.4-2.8 14.3-4.2 7-1.5 13.6-1.5 17.8 0 26.6 9.2 8.8 9.3 8.8 28zm56.5-67.2h12.8v11.2h-12.9q-7.3 0-10.1 3-2.8 2.9-2.8 10.5v7.3h22.2v10.4h-22.2v71.6h-13.6v-71.6h-12.9v-10.4h12.9v-5.7q0-13.7 6.4-20 6.4-6.3 20.2-6.3zm94.2 69.6v6.6h-62q0.9 13.9 8.4 21.3 7.5 7.2 20.9 7.2 7.8 0 15-1.9 7.4-1.9 14.5-5.7v12.7q-7.2 3.1-14.8 4.7-7.6 1.6-15.5 1.6-19.6 0-31.1-11.4-11.4-11.4-11.4-30.9 0-20.1 10.8-31.9 10.9-11.9 29.4-11.9 16.5 0 26.1 10.7 9.7 10.6 9.7 28.9zm-61.5-3.9h48q-0.1-11.1-6.2-17.7-6-6.6-16-6.6-11.2 0-18.1 6.4-6.7 6.4-7.7 17.9zm14.6-44.1l20.5-27.6h14.5l-23.8 27.6z"/></svg>